<svg width="528" height="264" viewBox="0 0 528 264" fill="none" xmlns="http://www.w3.org/2000/svg">
<path d="M106.693 75.9775H125.567L117.405 122.249H126.671L127.565 134.958H96.4385L106.693 75.9775Z" fill="black"/>
<path d="M137.289 89.583H155.44L147.525 134.96H129.394L137.289 89.583Z" fill="black"/>
<path d="M221.669 132.409C220.337 133.265 218.777 133.893 216.989 134.312C215.2 134.73 213.526 134.959 211.947 134.959C209.53 134.959 207.419 134.635 205.592 134.007C203.785 133.361 202.32 132.257 201.235 130.697C200.151 129.118 199.466 126.968 199.238 124.209C198.99 121.45 199.238 117.95 199.961 113.726L200.588 109.921C201.368 105.564 202.396 101.987 203.671 99.2091C204.945 96.4313 206.429 94.2433 208.123 92.6261C209.816 91.0279 211.7 89.9244 213.792 89.3156C215.885 88.7068 218.13 88.4023 220.566 88.4023C222.735 88.4023 224.694 88.7258 226.407 89.4107C228.119 90.0766 229.546 90.9899 230.63 92.1314L232.799 89.601H247.411L239.706 133.151C239.154 136.481 238.393 139.297 237.403 141.637C236.395 143.958 235.044 145.88 233.313 147.364C231.581 148.848 229.432 149.913 226.863 150.579C224.295 151.245 221.098 151.568 217.293 151.568C214.401 151.568 211.49 151.473 208.579 151.302C205.668 151.112 202.986 150.807 200.512 150.389L202.51 138.593H216.38C217.883 138.593 219.024 138.288 219.785 137.679C220.546 137.071 221.06 135.986 221.365 134.407L221.669 132.409ZM226.559 104.65C226.92 102.843 226.92 101.644 226.559 101.074C226.197 100.503 225.417 100.217 224.2 100.217C222.982 100.217 222.107 100.503 221.555 101.074C221.022 101.644 220.566 102.843 220.204 104.65L217.845 118.444C217.483 120.252 217.483 121.45 217.845 122.021C218.206 122.592 218.987 122.877 220.204 122.877C221.403 122.877 222.297 122.592 222.83 122.021C223.382 121.45 223.838 120.252 224.2 118.444L226.559 104.65Z" fill="black"/>
<path d="M252.472 89.583H270.623L265.258 119.891C264.953 121.585 264.972 122.745 265.315 123.392C265.638 124.02 266.418 124.343 267.636 124.343C268.968 124.343 270.109 123.925 271.08 123.069L276.978 89.583H295.128L287.233 134.96H272.621L271.175 132.41C269.234 133.628 267.16 134.541 264.953 135.169C262.746 135.797 260.767 136.12 259.017 136.12C256.239 136.12 253.975 135.797 252.206 135.169C250.455 134.522 249.124 133.533 248.21 132.182C247.297 130.831 246.802 129.043 246.707 126.874C246.612 124.705 246.803 122.041 247.297 118.883L252.472 89.583Z" fill="black"/>
<path d="M320.279 104.651C320.641 102.844 320.641 101.645 320.279 101.075C319.918 100.504 319.138 100.218 317.92 100.218C316.702 100.218 315.827 100.504 315.275 101.075C314.743 101.645 314.286 102.844 313.925 104.651L313.753 106.097H296.972C297.448 103.32 298.209 100.827 299.236 98.6203C300.264 96.4133 301.672 94.5487 303.498 93.0457C305.306 91.5236 307.551 90.382 310.195 89.602C312.859 88.8219 316.093 88.4224 319.898 88.4224C326.9 88.4224 332.075 89.5068 335.367 91.6377C338.658 93.7877 339.838 97.5548 338.868 102.939L333.331 134.96H318.814L317.463 132.334C315.884 133.476 314.058 134.408 311.965 135.093C309.872 135.797 307.684 136.139 305.382 136.139C300.054 136.139 296.344 135.112 294.214 133.057C292.102 131.002 291.398 127.616 292.14 122.897C292.806 118.655 294.632 115.534 297.619 113.556C300.606 111.558 305.02 110.321 310.823 109.827L319.442 109.199L320.279 104.651ZM318.472 115.002L315.028 115.363C313.886 115.477 313.03 115.953 312.479 116.771C311.927 117.589 311.527 118.636 311.299 119.891C310.995 121.585 311.032 122.745 311.394 123.392C311.755 124.02 312.536 124.343 313.753 124.343C314.286 124.343 314.876 124.229 315.466 124.02C316.074 123.811 316.626 123.487 317.102 123.069L318.472 115.002Z" fill="black"/>
<path d="M371.533 101.378H369.916C368.47 101.378 367.024 101.606 365.597 102.063C364.17 102.52 362.895 103.205 361.735 104.099L356.484 134.94H338.333L346.229 89.5629H360.841L362.096 92.1124C363.504 90.8947 364.95 89.9815 366.51 89.3536C368.051 88.7258 369.707 88.4023 371.457 88.4023C372.428 88.4023 373.188 88.4975 373.721 88.6877L371.533 101.378Z" fill="black"/>
<path d="M382.722 136.137C380.363 136.137 378.289 135.909 376.501 135.452C374.712 134.996 373.285 134.083 372.239 132.732C371.173 131.362 370.488 129.44 370.184 126.91C369.88 124.398 370.07 121.088 370.736 116.978L372.467 107.541C373.19 103.432 374.122 100.121 375.226 97.6098C376.348 95.0984 377.699 93.1578 379.259 91.8069C380.82 90.4371 382.57 89.5428 384.511 89.0862C386.451 88.6296 388.582 88.4013 390.96 88.4013C392.463 88.4013 394.062 88.6296 395.717 89.0862C397.372 89.5428 398.875 90.1897 400.207 91.0269L403.194 74.1509H421.345L410.728 134.939H396.116L394.67 132.389C392.787 133.664 390.846 134.596 388.81 135.205C386.813 135.833 384.777 136.137 382.722 136.137ZM398.323 101.472C398.019 101.054 397.6 100.73 397.049 100.521C396.497 100.312 395.964 100.197 395.412 100.197C394.195 100.197 393.3 100.521 392.73 101.149C392.159 101.796 391.721 102.956 391.417 104.649L388.791 119.889C388.487 121.582 388.525 122.743 388.886 123.39C389.248 124.018 390.047 124.341 391.246 124.341C391.797 124.341 392.368 124.227 392.977 124.018C393.586 123.809 394.119 123.485 394.613 123.067L398.323 101.472Z" fill="black"/>
<path d="M182.53 89.583L178.42 99.4384H185.003L170.163 134.96H185.079L204.029 89.583H182.53Z" fill="#E5252A"/>
<path d="M172.372 102.768L177.87 89.583H157.76L160.937 134.96H165.522L178.974 102.768H172.372Z" fill="black"/>
<path d="M424.18 74.6469H422.924V74.019H426.158V74.6469H424.903V78.9087H424.18V74.6469ZM429.183 77.9954L430.515 74H431.562V78.8897H430.839V74.9323L429.507 78.8897H428.86L427.509 74.9323V78.8897H426.805V74H427.851L429.183 77.9954Z" fill="black"/>
<path d="M320.697 155.069H310.481V151.93C310.481 150.465 310.347 149.533 310.081 149.133C309.815 148.734 309.377 148.525 308.768 148.525C308.102 148.525 307.608 148.791 307.265 149.343C306.923 149.875 306.752 150.694 306.752 151.797C306.752 153.205 306.942 154.27 307.322 154.993C307.684 155.716 308.73 156.573 310.443 157.581C315.351 160.492 318.433 162.87 319.708 164.735C320.983 166.599 321.611 169.605 321.611 173.753C321.611 176.778 321.249 178.985 320.545 180.412C319.841 181.839 318.472 183.038 316.455 184.008C314.438 184.978 312.079 185.454 309.396 185.454C306.447 185.454 303.936 184.902 301.862 183.78C299.788 182.657 298.418 181.249 297.771 179.518C297.124 177.786 296.801 175.351 296.801 172.174V169.396H307.018V174.552C307.018 176.131 307.17 177.159 307.456 177.615C307.741 178.072 308.254 178.3 308.977 178.3C309.7 178.3 310.252 178.015 310.614 177.444C310.975 176.873 311.146 176.017 311.146 174.875C311.146 172.383 310.804 170.747 310.119 169.986C309.415 169.225 307.703 167.931 304.963 166.143C302.223 164.335 300.416 163.022 299.522 162.185C298.627 161.367 297.885 160.225 297.315 158.78C296.725 157.334 296.439 155.488 296.439 153.243C296.439 150.009 296.858 147.63 297.676 146.127C298.513 144.624 299.845 143.464 301.691 142.607C303.536 141.77 305.762 141.333 308.388 141.333C311.242 141.333 313.677 141.789 315.694 142.722C317.71 143.654 319.042 144.815 319.689 146.222C320.336 147.63 320.678 150.009 320.678 153.376V155.069H320.697Z" fill="black"/>
<path d="M348.666 162.071V170.575C348.666 173.695 348.514 175.979 348.19 177.444C347.886 178.889 347.201 180.259 346.173 181.515C345.146 182.771 343.814 183.703 342.216 184.312C340.599 184.921 338.753 185.206 336.661 185.206C334.32 185.206 332.342 184.94 330.724 184.445C329.107 183.931 327.852 183.151 326.957 182.124C326.063 181.096 325.416 179.841 325.036 178.357C324.655 176.892 324.465 174.666 324.465 171.736V162.851C324.465 159.635 324.807 157.105 325.511 155.297C326.215 153.49 327.471 152.025 329.278 150.94C331.086 149.837 333.407 149.285 336.223 149.285C338.601 149.285 340.637 149.647 342.33 150.351C344.024 151.055 345.336 151.968 346.269 153.109C347.201 154.251 347.829 155.411 348.171 156.61C348.495 157.79 348.666 159.616 348.666 162.071ZM338.087 159.464C338.087 157.676 337.992 156.572 337.802 156.096C337.612 155.64 337.193 155.412 336.565 155.412C335.937 155.412 335.519 155.64 335.31 156.096C335.1 156.553 335.005 157.676 335.005 159.464V175.122C335.005 176.759 335.119 177.824 335.31 178.319C335.519 178.813 335.937 179.061 336.546 179.061C337.174 179.061 337.593 178.832 337.783 178.376C337.992 177.919 338.087 176.949 338.087 175.446V159.464Z" fill="black"/>
<path d="M363.011 142.246H352.128V184.578H363.011V142.246Z" fill="black"/>
<path d="M376.254 163.326H366.342V161.005C366.342 158.322 366.646 156.248 367.274 154.802C367.902 153.337 369.139 152.063 371.003 150.94C372.868 149.818 375.284 149.266 378.271 149.266C381.848 149.266 384.531 149.894 386.357 151.168C388.165 152.424 389.268 153.984 389.63 155.83C389.991 157.675 390.181 161.461 390.181 167.188V184.597H379.907V181.515C379.26 182.751 378.423 183.684 377.415 184.312C376.388 184.939 375.17 185.244 373.762 185.244C371.916 185.244 370.223 184.73 368.663 183.684C367.122 182.656 366.361 180.373 366.361 176.872V174.019C366.361 171.412 366.779 169.643 367.598 168.71C368.416 167.759 370.451 166.675 373.686 165.419C377.148 164.068 379.013 163.136 379.26 162.679C379.508 162.203 379.622 161.252 379.622 159.806C379.622 157.999 379.489 156.819 379.222 156.267C378.956 155.716 378.499 155.449 377.872 155.449C377.149 155.449 376.711 155.678 376.54 156.134C376.368 156.591 376.273 157.789 376.273 159.73V163.326H376.254ZM379.603 168.082C377.909 169.319 376.939 170.366 376.654 171.203C376.388 172.04 376.254 173.239 376.254 174.818C376.254 176.606 376.369 177.767 376.616 178.299C376.844 178.832 377.32 179.079 378.005 179.079C378.671 179.079 379.089 178.87 379.299 178.471C379.489 178.071 379.603 176.987 379.603 175.236V168.082Z" fill="black"/>
<path d="M404.355 149.875L403.936 154.441C405.477 151.169 407.684 149.437 410.614 149.247V161.462C408.674 161.462 407.247 161.728 406.352 162.242C405.439 162.775 404.887 163.497 404.678 164.43C404.469 165.362 404.374 167.512 404.374 170.88V184.578H393.814V149.875H404.355Z" fill="black"/>
<path d="M268.074 158.19H269.273C269.444 158.19 269.596 158.038 269.596 157.867V157.467C269.463 157.524 269.33 157.581 269.197 157.639C268.797 157.81 268.436 158 268.074 158.19Z" fill="#F2AD31"/>
<path d="M270.222 158.19H275.359C275.587 158.19 275.758 158 275.758 157.791V156.212C273.799 156.231 271.801 156.592 269.86 157.353V157.848C269.879 158.038 270.031 158.19 270.222 158.19Z" fill="#F2AD31"/>
<path d="M276.064 157.867C276.064 158.038 276.197 158.19 276.388 158.19H281.62C281.81 158.19 281.962 158.038 281.962 157.848V157.372C280.098 156.63 278.1 156.231 276.064 156.212V157.867Z" fill="#F2AD31"/>
<path d="M282.551 158.19H283.73C283.255 157.924 282.76 157.696 282.266 157.486V157.886C282.266 158.057 282.399 158.19 282.551 158.19Z" fill="#F2AD31"/>
<path d="M263.089 162.605C263.261 162.605 263.394 162.472 263.394 162.3V161.937C263.203 162.147 263.031 162.376 262.859 162.605H263.089Z" fill="#F2AD31"/>
<path d="M263.695 161.613V162.336C263.695 162.488 263.809 162.602 263.962 162.602H269.232C269.422 162.602 269.593 162.45 269.593 162.241V158.835C269.593 158.626 269.422 158.455 269.213 158.455H267.539C266.074 159.349 264.799 160.414 263.695 161.613Z" fill="#F2AD31"/>
<path d="M270.239 162.606H275.433C275.624 162.606 275.795 162.454 275.795 162.244V158.915C275.795 158.668 275.605 158.477 275.358 158.477H270.354C270.106 158.477 269.897 158.687 269.897 158.934V162.244C269.878 162.454 270.03 162.606 270.239 162.606Z" fill="#F2AD31"/>
<path d="M276.426 162.606H281.62C281.81 162.606 281.962 162.454 281.962 162.244V158.877C281.962 158.649 281.791 158.477 281.563 158.477H276.502C276.255 158.477 276.064 158.668 276.064 158.915V162.244C276.064 162.454 276.236 162.606 276.426 162.606Z" fill="#F2AD31"/>
<path d="M284.263 158.494H282.665C282.437 158.494 282.266 158.665 282.266 158.893V162.261C282.266 162.451 282.418 162.623 282.627 162.623H287.897C288.049 162.623 288.164 162.508 288.164 162.356V161.671C287.022 160.396 285.69 159.331 284.263 158.494Z" fill="#F2AD31"/>
<path d="M262.951 167.037C263.199 167.037 263.389 166.847 263.389 166.599V163.251C263.389 163.06 263.237 162.927 263.066 162.927H262.628C261.696 164.202 260.954 165.591 260.421 167.056H262.951V167.037Z" fill="#F2AD31"/>
<path d="M264.076 167.037H269.194C269.403 167.037 269.574 166.866 269.574 166.656V163.308C269.574 163.098 269.403 162.927 269.194 162.927H264.076C263.866 162.927 263.695 163.098 263.695 163.308V166.656C263.695 166.866 263.866 167.037 264.076 167.037Z" fill="#F2AD31"/>
<path d="M270.26 167.037H275.378C275.588 167.037 275.759 166.866 275.759 166.656V163.308C275.759 163.098 275.588 162.927 275.378 162.927H270.26C270.051 162.927 269.88 163.098 269.88 163.308V166.656C269.88 166.866 270.051 167.037 270.26 167.037Z" fill="#F2AD31"/>
<path d="M276.462 167.037H281.58C281.789 167.037 281.96 166.866 281.96 166.656V163.308C281.96 163.098 281.789 162.927 281.58 162.927H276.462C276.253 162.927 276.082 163.098 276.082 163.308V166.656C276.062 166.866 276.234 167.037 276.462 167.037Z" fill="#F2AD31"/>
<path d="M282.646 167.037H287.764C287.973 167.037 288.145 166.866 288.145 166.656V163.308C288.145 163.098 287.973 162.927 287.764 162.927H282.646C282.437 162.927 282.266 163.098 282.266 163.308V166.656C282.266 166.866 282.437 167.037 282.646 167.037Z" fill="#F2AD31"/>
<path d="M263.39 171.013V167.779C263.39 167.532 263.181 167.341 262.953 167.341H260.327C259.87 168.673 259.585 170.062 259.471 171.47H262.953C263.2 171.451 263.39 171.261 263.39 171.013Z" fill="#F2AD31"/>
<path d="M264.076 171.45H269.194C269.403 171.45 269.574 171.279 269.574 171.07V167.721C269.574 167.512 269.403 167.341 269.194 167.341H264.076C263.866 167.341 263.695 167.512 263.695 167.721V171.07C263.695 171.279 263.866 171.45 264.076 171.45Z" fill="#F2AD31"/>
<path d="M270.26 171.451H275.378C275.588 171.451 275.759 171.28 275.759 171.07V167.722C275.759 167.513 275.588 167.341 275.378 167.341H270.26C270.051 167.341 269.88 167.513 269.88 167.722V171.07C269.88 171.28 270.051 171.451 270.26 171.451Z" fill="#F2AD31"/>
<path d="M276.462 171.451H281.58C281.789 171.451 281.96 171.28 281.96 171.07V167.722C281.96 167.513 281.789 167.341 281.58 167.341H276.462C276.253 167.341 276.082 167.513 276.082 167.722V171.07C276.062 171.28 276.234 171.451 276.462 171.451Z" fill="#F2AD31"/>
<path d="M282.646 171.451H287.764C287.973 171.451 288.145 171.28 288.145 171.07V167.722C288.145 167.513 287.973 167.341 287.764 167.341H282.646C282.437 167.341 282.266 167.513 282.266 167.722V171.07C282.266 171.28 282.437 171.451 282.646 171.451Z" fill="#F2AD31"/>
<path d="M259.721 175.884H262.956C263.203 175.884 263.393 175.694 263.393 175.447V172.212C263.393 171.965 263.184 171.775 262.956 171.775H259.455C259.36 173.106 259.455 174.495 259.721 175.884Z" fill="#F2AD31"/>
<path d="M264.076 175.884H269.194C269.403 175.884 269.574 175.713 269.574 175.504V172.155C269.574 171.946 269.403 171.775 269.194 171.775H264.076C263.866 171.775 263.695 171.946 263.695 172.155V175.504C263.695 175.713 263.866 175.884 264.076 175.884Z" fill="#F2AD31"/>
<path d="M270.26 175.884H275.378C275.588 175.884 275.759 175.713 275.759 175.504V172.155C275.759 171.946 275.588 171.775 275.378 171.775H270.26C270.051 171.775 269.88 171.946 269.88 172.155V175.504C269.88 175.713 270.051 175.884 270.26 175.884Z" fill="#F2AD31"/>
<path d="M276.462 175.884H281.58C281.789 175.884 281.96 175.713 281.96 175.504V172.155C281.96 171.946 281.789 171.775 281.58 171.775H276.462C276.253 171.775 276.082 171.946 276.082 172.155V175.504C276.062 175.713 276.234 175.884 276.462 175.884Z" fill="#F2AD31"/>
<path d="M282.646 175.884H287.764C287.973 175.884 288.145 175.713 288.145 175.504V172.155C288.145 171.946 287.973 171.775 287.764 171.775H282.646C282.437 171.775 282.266 171.946 282.266 172.155V175.504C282.266 175.713 282.437 175.884 282.646 175.884Z" fill="#F2AD31"/>
<path d="M261.28 180.298H262.954C263.202 180.298 263.392 180.108 263.392 179.861V176.626C263.392 176.379 263.183 176.189 262.954 176.189H259.796C260.043 177.273 260.386 178.377 260.861 179.442C260.995 179.709 261.128 180.013 261.28 180.298Z" fill="#F2AD31"/>
<path d="M264.076 180.298H269.194C269.403 180.298 269.574 180.126 269.574 179.917V176.569C269.574 176.359 269.403 176.188 269.194 176.188H264.076C263.866 176.188 263.695 176.359 263.695 176.569V179.917C263.695 180.126 263.866 180.298 264.076 180.298Z" fill="#F2AD31"/>
<path d="M270.26 180.298H275.378C275.588 180.298 275.759 180.127 275.759 179.918V176.569C275.759 176.36 275.588 176.189 275.378 176.189H270.26C270.051 176.189 269.88 176.36 269.88 176.569V179.918C269.88 180.127 270.051 180.298 270.26 180.298Z" fill="#F2AD31"/>
<path d="M276.462 180.298H281.58C281.789 180.298 281.96 180.127 281.96 179.918V176.569C281.96 176.36 281.789 176.189 281.58 176.189H276.462C276.253 176.189 276.082 176.36 276.082 176.569V179.918C276.062 180.127 276.234 180.298 276.462 180.298Z" fill="#F2AD31"/>
<path d="M282.646 180.298H287.764C287.973 180.298 288.145 180.127 288.145 179.918V176.569C288.145 176.36 287.973 176.189 287.764 176.189H282.646C282.437 176.189 282.266 176.36 282.266 176.569V179.918C282.266 180.127 282.437 180.298 282.646 180.298Z" fill="#F2AD31"/>
<path d="M263.393 181.04C263.393 180.793 263.184 180.603 262.956 180.603H261.434C262.004 181.63 262.651 182.581 263.393 183.457V181.04Z" fill="#F2AD31"/>
<path d="M264.628 184.711H269.175C269.404 184.711 269.594 184.521 269.594 184.292V181.115C269.594 180.811 269.346 180.563 269.042 180.563H264.228C263.924 180.563 263.677 180.811 263.677 181.115V183.741C264 184.102 264.305 184.406 264.628 184.711Z" fill="#F2AD31"/>
<path d="M270.298 184.711H275.378C275.607 184.711 275.797 184.521 275.797 184.292V181.115C275.797 180.811 275.55 180.563 275.245 180.563H270.431C270.127 180.563 269.88 180.811 269.88 181.115V184.292C269.88 184.54 270.07 184.711 270.298 184.711Z" fill="#F2AD31"/>
<path d="M276.483 184.711H281.563C281.791 184.711 281.981 184.521 281.981 184.292V181.115C281.981 180.811 281.734 180.563 281.43 180.563H276.616C276.312 180.563 276.064 180.811 276.064 181.115V184.292C276.064 184.54 276.255 184.711 276.483 184.711Z" fill="#F2AD31"/>
<path d="M282.664 184.711H287.744C287.972 184.711 288.162 184.521 288.162 184.292V180.982C288.162 180.753 287.972 180.563 287.744 180.563H282.797C282.492 180.563 282.245 180.811 282.245 181.115V184.292C282.264 184.54 282.454 184.711 282.664 184.711Z" fill="#F2AD31"/>
<path d="M262.878 156.86L256.257 147.138L256.694 146.757L264.514 155.566L262.878 156.86Z" fill="#F2AD31"/>
<path d="M269.023 153.509L266.702 142.55L267.197 142.36L271.021 152.938L269.023 153.509Z" fill="#F2AD31"/>
<path d="M278.042 152.977L275.968 152.749L278.042 141.448L278.612 141.562L278.042 152.977Z" fill="#F2AD31"/>
<path d="M284.512 155.679L282.705 154.671L288.946 144.72L289.269 144.987L284.512 155.679Z" fill="#F2AD31"/>
<path d="M251.521 190L251.007 189.429L259.664 181.324L261.014 182.903L251.521 190Z" fill="#F2AD31"/>
<path d="M246.612 179.689L246.384 179.099L256.772 174.932L257.419 176.911L246.612 179.689Z" fill="#F2AD31"/>
<path d="M256.351 169.985L245.012 168.406L245.164 167.816L256.503 167.911L256.351 169.985Z" fill="#F2AD31"/>
<path d="M258.006 163.194L248.474 157.658L248.759 156.992L258.938 161.33L258.006 163.194Z" fill="#F2AD31"/>
</svg>
